<svg xmlns="http://www.w3.org/2000/svg" xmlns:xlink="http://www.w3.org/1999/xlink" width="600" zoomAndPan="magnify" viewBox="0 0 450 187.499995" height="250" preserveAspectRatio="xMidYMid meet" version="1.0"><defs><g/><clipPath id="f42476530c"><path d="M 53 80 L 85.800781 80 L 85.800781 98 L 53 98 Z M 53 80 " clip-rule="nonzero"/></clipPath><clipPath id="d8a230edaa"><path d="M 54 80 L 85.800781 80 L 85.800781 96 L 54 96 Z M 54 80 " clip-rule="nonzero"/></clipPath><clipPath id="8d412ff983"><path d="M 36.089844 61.472656 L 47 61.472656 L 47 65 L 36.089844 65 Z M 36.089844 61.472656 " clip-rule="nonzero"/></clipPath><clipPath id="631caec1da"><path d="M 36.089844 61.472656 L 47 61.472656 L 47 64 L 36.089844 64 Z M 36.089844 61.472656 " clip-rule="nonzero"/></clipPath></defs><path stroke-linecap="butt" transform="matrix(0.955987, 0, 0, 0.955987, 8.202847, 136.598165)" fill="none" stroke-linejoin="miter" d="M 0.000291208 4.498253 L 70.836764 4.498253 " stroke="#292929" stroke-width="9" stroke-opacity="1" stroke-miterlimit="4"/><path stroke-linecap="butt" transform="matrix(0, 0.955987, -0.955987, 0, 16.508704, 76.37044)" fill="none" stroke-linejoin="miter" d="M 0.000683704 4.499718 L 69.186376 4.499718 " stroke="#292929" stroke-width="9" stroke-opacity="1" stroke-miterlimit="4"/><path stroke-linecap="butt" transform="matrix(-0.955987, 0, 0, -0.955987, 114.690048, 50.403149)" fill="none" stroke-linejoin="miter" d="M -0.00142096 4.499628 L 70.839138 4.499628 " stroke="#292929" stroke-width="9" stroke-opacity="1" stroke-miterlimit="4"/><path stroke-linecap="butt" transform="matrix(0, -0.955987, 0.955987, 0, 106.380672, 110.630877)" fill="none" stroke-linejoin="miter" d="M -0.00202506 4.501026 L 69.183667 4.501026 " stroke="#292929" stroke-width="9" stroke-opacity="1" stroke-miterlimit="4"/><path fill="#000000" d="M 64.253906 99.875 C 68.402344 100.128906 69.421875 102.5 72.808594 103.515625 C 73.738281 103.769531 75.5625 106.4375 76.875 107.074219 C 78.652344 107.921875 79.667969 108.726562 79.667969 110.84375 C 79.667969 111.183594 79.753906 111.902344 79.542969 112.113281 C 79.542969 112.113281 79.457031 113.003906 79.457031 113.128906 C 79.5 116.347656 77.339844 117.40625 76.917969 119.058594 C 76.28125 121.390625 76.070312 120.414062 75.605469 121.304688 C 74.757812 122.914062 73.996094 122.363281 73.105469 122.914062 C 72.300781 123.421875 72.597656 123.125 71.917969 123.464844 C 70.816406 124.015625 70.226562 124.015625 69.335938 124.394531 C 67.683594 125.074219 59.550781 124.988281 57.433594 124.988281 C 56.375 124.988281 56.375 124.820312 55.742188 124.777344 C 52.859375 124.609375 50.066406 125.371094 47.609375 123.507812 C 47.441406 123.378906 46 122.449219 45.871094 122.40625 C 44.601562 121.855469 44.304688 121.304688 43.375 120.667969 C 43.035156 120.457031 41.847656 119.90625 41.46875 119.949219 C 41.128906 119.992188 41.042969 118.976562 41.042969 118.71875 C 41.085938 117.621094 39.5625 117.070312 39.730469 114.65625 C 39.816406 113.085938 40.070312 113.257812 39.941406 111.265625 C 40.28125 110.164062 40.578125 108.808594 41.425781 107.964844 C 43.5 105.84375 43.753906 103.558594 47.398438 102.710938 C 48.074219 102.542969 50.066406 102.117188 50.402344 101.652344 C 50.828125 101.058594 52.945312 100.933594 53.539062 100.933594 C 54.214844 100.976562 56.25 100.722656 56.503906 100.171875 C 56.757812 99.535156 60.824219 98.898438 61.375 99.070312 C 62.136719 99.367188 63.449219 99.40625 64.253906 99.875 Z M 64.253906 99.875 " fill-opacity="1" fill-rule="evenodd"/><path fill="#292929" d="M 64.253906 99.875 C 68.402344 100.128906 69.421875 102.5 72.808594 103.515625 C 73.738281 103.769531 75.5625 106.4375 76.875 107.074219 C 78.398438 107.792969 79.332031 108.472656 79.585938 109.953125 C 79.585938 110.164062 79.542969 110.335938 79.542969 110.417969 C 79.585938 113.597656 77.46875 114.65625 77 116.347656 C 76.367188 118.679688 76.152344 117.660156 75.6875 118.550781 C 74.839844 120.203125 74.078125 119.652344 73.191406 120.203125 C 72.386719 120.710938 72.679688 120.414062 72.003906 120.753906 C 70.902344 121.304688 70.308594 121.304688 69.421875 121.644531 C 67.769531 122.363281 59.636719 122.277344 57.519531 122.277344 C 56.460938 122.277344 56.460938 122.109375 55.824219 122.066406 C 52.945312 121.898438 50.148438 122.660156 47.695312 120.796875 C 47.523438 120.667969 46.085938 119.738281 45.957031 119.695312 C 44.6875 119.144531 44.390625 118.550781 43.457031 117.957031 C 43.121094 117.746094 41.933594 117.195312 41.550781 117.238281 C 41.257812 117.28125 41.128906 116.265625 41.171875 116.011719 C 41.171875 115.121094 40.238281 114.613281 39.902344 113.257812 C 39.984375 112.832031 40.027344 112.367188 39.941406 111.265625 C 40.28125 110.164062 40.578125 108.808594 41.425781 107.964844 C 43.5 105.84375 43.753906 103.558594 47.398438 102.710938 C 48.074219 102.542969 50.066406 102.117188 50.402344 101.652344 C 50.828125 101.058594 52.945312 100.933594 53.539062 100.933594 C 54.214844 100.976562 56.25 100.722656 56.503906 100.171875 C 56.757812 99.535156 60.824219 98.898438 61.375 99.070312 C 62.136719 99.367188 63.449219 99.40625 64.253906 99.875 Z M 64.253906 99.875 " fill-opacity="1" fill-rule="evenodd"/><g clip-path="url(#f42476530c)"><path fill="#000000" d="M 73.445312 81.492188 C 76.746094 81.664062 77.550781 83.144531 80.21875 83.824219 C 80.980469 83.992188 82.378906 85.6875 83.4375 86.109375 C 84.835938 86.660156 85.640625 87.167969 85.640625 88.566406 C 85.640625 88.734375 85.726562 89.203125 85.554688 89.371094 C 85.554688 89.371094 85.472656 89.921875 85.472656 90.007812 C 85.515625 92.082031 83.820312 92.757812 83.480469 93.859375 C 82.972656 95.34375 82.804688 94.707031 82.421875 95.257812 C 81.746094 96.316406 81.152344 95.976562 80.472656 96.316406 C 79.796875 96.65625 80.050781 96.484375 79.5 96.699219 C 78.652344 97.035156 78.144531 97.035156 77.46875 97.289062 C 76.152344 97.714844 69.714844 97.671875 68.066406 97.671875 C 67.21875 97.671875 67.21875 97.542969 66.710938 97.503906 C 64.421875 97.417969 62.21875 97.925781 60.273438 96.699219 C 60.101562 96.613281 59 96.019531 58.917969 95.976562 C 57.902344 95.640625 57.644531 95.257812 56.882812 94.875 C 56.628906 94.75 55.699219 94.410156 55.402344 94.410156 C 55.148438 94.453125 55.0625 93.773438 55.105469 93.605469 C 55.105469 92.886719 53.878906 92.546875 54.003906 91.023438 C 54.089844 90.007812 54.300781 90.132812 54.171875 88.820312 C 54.46875 88.101562 54.722656 87.253906 55.359375 86.703125 C 57.011719 85.304688 57.222656 83.863281 60.101562 83.3125 C 60.652344 83.1875 62.21875 82.933594 62.472656 82.636719 C 62.8125 82.253906 64.464844 82.171875 64.972656 82.171875 C 65.480469 82.171875 67.089844 82 67.300781 81.664062 C 67.515625 81.238281 70.734375 80.859375 71.15625 80.984375 C 71.792969 81.15625 72.808594 81.195312 73.445312 81.492188 Z M 73.445312 81.492188 " fill-opacity="1" fill-rule="evenodd"/></g><g clip-path="url(#d8a230edaa)"><path fill="#292929" d="M 73.445312 81.492188 C 76.746094 81.664062 77.550781 83.144531 80.21875 83.824219 C 80.980469 83.992188 82.378906 85.6875 83.4375 86.109375 C 84.625 86.574219 85.386719 87 85.554688 87.972656 C 85.554688 88.101562 85.554688 88.226562 85.554688 88.269531 C 85.597656 90.34375 83.90625 91.023438 83.523438 92.125 C 83.058594 93.605469 82.886719 92.96875 82.507812 93.519531 C 81.828125 94.578125 81.238281 94.242188 80.515625 94.578125 C 79.882812 94.917969 80.09375 94.707031 79.585938 94.917969 C 78.738281 95.300781 78.230469 95.300781 77.507812 95.511719 C 76.238281 95.976562 69.757812 95.894531 68.148438 95.894531 C 67.300781 95.894531 67.261719 95.808594 66.753906 95.765625 C 64.464844 95.679688 62.304688 96.148438 60.316406 94.960938 C 60.1875 94.875 59.042969 94.285156 58.960938 94.242188 C 57.941406 93.902344 57.730469 93.519531 56.96875 93.140625 C 56.714844 93.011719 55.78125 92.632812 55.488281 92.675781 C 55.230469 92.675781 55.148438 92.039062 55.148438 91.871094 C 55.191406 91.320312 54.425781 90.980469 54.171875 90.089844 C 54.214844 89.835938 54.257812 89.539062 54.171875 88.820312 C 54.46875 88.101562 54.722656 87.253906 55.359375 86.703125 C 57.011719 85.304688 57.222656 83.863281 60.101562 83.3125 C 60.652344 83.1875 62.21875 82.933594 62.472656 82.636719 C 62.8125 82.253906 64.464844 82.171875 64.972656 82.171875 C 65.480469 82.171875 67.089844 82 67.300781 81.664062 C 67.515625 81.238281 70.734375 80.859375 71.15625 80.984375 C 71.792969 81.15625 72.808594 81.195312 73.445312 81.492188 Z M 73.445312 81.492188 " fill-opacity="1" fill-rule="evenodd"/></g><path fill="#000000" d="M 54.34375 74.25 C 56.671875 74.335938 57.222656 75.097656 59.128906 75.4375 C 59.679688 75.523438 60.652344 76.410156 61.414062 76.621094 C 62.433594 76.917969 62.984375 77.171875 62.984375 77.851562 C 62.984375 77.9375 63.023438 78.191406 62.898438 78.273438 C 62.898438 78.273438 62.855469 78.570312 62.855469 78.613281 C 62.898438 79.628906 61.667969 80.011719 61.414062 80.5625 C 61.078125 81.324219 60.949219 80.984375 60.695312 81.28125 C 60.230469 81.789062 59.804688 81.621094 59.296875 81.789062 C 58.832031 81.960938 59 81.875 58.621094 82 C 58.027344 82.171875 57.6875 82.171875 57.179688 82.296875 C 56.25 82.507812 51.675781 82.46875 50.53125 82.46875 C 49.9375 82.46875 49.894531 82.425781 49.558594 82.425781 C 47.949219 82.339844 46.378906 82.59375 44.984375 82 C 44.898438 81.960938 44.09375 81.664062 44.050781 81.621094 C 43.332031 81.449219 43.160156 81.28125 42.613281 81.070312 C 42.441406 80.984375 41.765625 80.816406 41.550781 80.816406 C 41.382812 80.859375 41.339844 80.519531 41.339844 80.433594 C 41.339844 80.054688 40.492188 79.882812 40.578125 79.121094 C 40.621094 78.570312 40.789062 78.65625 40.707031 77.976562 C 40.917969 77.640625 41.085938 77.171875 41.550781 76.917969 C 42.695312 76.199219 42.867188 75.480469 44.898438 75.183594 C 45.28125 75.140625 46.378906 75.011719 46.59375 74.84375 C 46.804688 74.632812 47.988281 74.589844 48.328125 74.589844 C 48.710938 74.632812 49.855469 74.546875 49.980469 74.335938 C 50.148438 74.125 52.394531 73.953125 52.734375 73.996094 C 53.15625 74.082031 53.878906 74.125 54.34375 74.25 Z M 54.34375 74.25 " fill-opacity="1" fill-rule="evenodd"/><path fill="#292929" d="M 54.34375 74.25 C 56.671875 74.335938 57.222656 75.097656 59.128906 75.4375 C 59.679688 75.523438 60.652344 76.410156 61.414062 76.621094 C 62.261719 76.835938 62.769531 77.089844 62.941406 77.554688 C 62.898438 77.640625 62.898438 77.679688 62.898438 77.722656 C 62.941406 78.742188 61.710938 79.121094 61.457031 79.671875 C 61.121094 80.433594 60.992188 80.09375 60.738281 80.390625 C 60.273438 80.898438 59.847656 80.730469 59.339844 80.898438 C 58.875 81.070312 59.042969 80.984375 58.707031 81.113281 C 58.070312 81.28125 57.730469 81.28125 57.222656 81.410156 C 56.332031 81.621094 51.71875 81.578125 50.574219 81.578125 C 49.980469 81.578125 49.980469 81.535156 49.597656 81.535156 C 47.988281 81.449219 46.421875 81.703125 45.027344 81.113281 C 44.941406 81.070312 44.136719 80.773438 44.09375 80.730469 C 43.375 80.5625 43.203125 80.390625 42.652344 80.179688 C 42.484375 80.09375 41.808594 79.925781 41.636719 79.925781 C 41.425781 79.96875 41.382812 79.628906 41.382812 79.546875 C 41.382812 79.25 40.875 79.078125 40.664062 78.65625 C 40.707031 78.484375 40.746094 78.359375 40.707031 77.976562 C 40.917969 77.640625 41.085938 77.171875 41.550781 76.917969 C 42.695312 76.199219 42.867188 75.480469 44.898438 75.183594 C 45.28125 75.140625 46.378906 75.011719 46.59375 74.84375 C 46.804688 74.632812 47.988281 74.589844 48.328125 74.589844 C 48.710938 74.632812 49.855469 74.546875 49.980469 74.335938 C 50.148438 74.125 52.394531 73.953125 52.734375 73.996094 C 53.15625 74.082031 53.878906 74.125 54.34375 74.25 Z M 54.34375 74.25 " fill-opacity="1" fill-rule="evenodd"/><path fill="#000000" d="M 74.714844 73.65625 C 76.578125 73.742188 77.042969 74.292969 78.566406 74.546875 C 78.992188 74.632812 79.796875 75.265625 80.390625 75.4375 C 81.195312 75.648438 81.660156 75.816406 81.660156 76.367188 C 81.660156 76.453125 81.703125 76.621094 81.617188 76.664062 C 81.617188 76.664062 81.574219 76.875 81.574219 76.917969 C 81.617188 77.679688 80.644531 77.9375 80.433594 78.359375 C 80.136719 78.910156 80.050781 78.699219 79.839844 78.910156 C 79.457031 79.289062 79.117188 79.164062 78.695312 79.289062 C 78.355469 79.417969 78.484375 79.375 78.1875 79.417969 C 77.679688 79.585938 77.382812 79.585938 77 79.671875 C 76.238281 79.839844 72.554688 79.800781 71.621094 79.800781 C 71.15625 79.800781 71.15625 79.757812 70.859375 79.757812 C 69.546875 79.714844 68.320312 79.882812 67.175781 79.460938 C 67.089844 79.417969 66.457031 79.164062 66.414062 79.164062 C 65.820312 79.035156 65.691406 78.910156 65.269531 78.742188 C 65.101562 78.699219 64.59375 78.570312 64.421875 78.570312 C 64.253906 78.570312 64.210938 78.359375 64.210938 78.273438 C 64.253906 78.019531 63.535156 77.894531 63.617188 77.300781 C 63.660156 76.917969 63.789062 76.960938 63.703125 76.453125 C 63.871094 76.199219 64 75.859375 64.378906 75.648438 C 65.355469 75.140625 65.4375 74.589844 67.089844 74.378906 C 67.386719 74.335938 68.320312 74.207031 68.445312 74.125 C 68.617188 73.953125 69.589844 73.953125 69.886719 73.953125 C 70.140625 73.953125 71.070312 73.871094 71.199219 73.742188 C 71.324219 73.574219 73.148438 73.445312 73.402344 73.488281 C 73.738281 73.53125 74.332031 73.574219 74.714844 73.65625 Z M 74.714844 73.65625 " fill-opacity="1" fill-rule="evenodd"/><path fill="#292929" d="M 74.714844 73.65625 C 76.578125 73.742188 77.042969 74.292969 78.566406 74.546875 C 78.992188 74.632812 79.796875 75.265625 80.390625 75.4375 C 81.066406 75.605469 81.492188 75.777344 81.617188 76.113281 C 81.617188 76.199219 81.617188 76.242188 81.617188 76.242188 C 81.617188 77.046875 80.6875 77.300781 80.472656 77.679688 C 80.175781 78.273438 80.09375 78.019531 79.882812 78.230469 C 79.5 78.65625 79.160156 78.484375 78.738281 78.65625 C 78.355469 78.78125 78.527344 78.699219 78.230469 78.78125 C 77.722656 78.910156 77.425781 78.910156 77.042969 78.996094 C 76.28125 79.164062 72.597656 79.121094 71.664062 79.121094 C 71.199219 79.121094 71.199219 79.078125 70.902344 79.078125 C 69.589844 79.035156 68.363281 79.25 67.21875 78.78125 C 67.132812 78.742188 66.496094 78.527344 66.457031 78.527344 C 65.863281 78.359375 65.734375 78.230469 65.3125 78.105469 C 65.144531 78.019531 64.632812 77.894531 64.464844 77.894531 C 64.296875 77.9375 64.253906 77.679688 64.253906 77.597656 C 64.296875 77.386719 63.828125 77.257812 63.703125 76.960938 C 63.746094 76.835938 63.746094 76.75 63.703125 76.453125 C 63.871094 76.199219 64 75.859375 64.378906 75.648438 C 65.355469 75.140625 65.4375 74.589844 67.089844 74.378906 C 67.386719 74.335938 68.320312 74.207031 68.445312 74.125 C 68.617188 73.953125 69.589844 73.953125 69.886719 73.953125 C 70.140625 73.953125 71.070312 73.871094 71.199219 73.742188 C 71.324219 73.574219 73.148438 73.445312 73.402344 73.488281 C 73.738281 73.53125 74.332031 73.574219 74.714844 73.65625 Z M 74.714844 73.65625 " fill-opacity="1" fill-rule="evenodd"/><path fill="#000000" d="M 64.167969 69.972656 C 65.355469 70.015625 65.652344 70.398438 66.625 70.566406 C 66.921875 70.609375 67.429688 71.074219 67.8125 71.160156 C 68.320312 71.285156 68.617188 71.414062 68.617188 71.792969 C 68.617188 71.835938 68.617188 71.964844 68.574219 72.007812 C 68.574219 72.007812 68.53125 72.132812 68.53125 72.175781 C 68.574219 72.683594 67.9375 72.851562 67.8125 73.148438 C 67.640625 73.53125 67.558594 73.363281 67.429688 73.488281 C 67.21875 73.785156 66.964844 73.65625 66.710938 73.785156 C 66.496094 73.871094 66.582031 73.785156 66.371094 73.871094 C 66.074219 73.953125 65.90625 73.953125 65.652344 73.996094 C 65.183594 74.125 62.8125 74.125 62.21875 74.125 C 61.925781 74.125 61.925781 74.082031 61.710938 74.082031 C 60.90625 74.039062 60.101562 74.167969 59.382812 73.871094 C 59.339844 73.828125 58.917969 73.699219 58.875 73.65625 C 58.535156 73.574219 58.449219 73.488281 58.15625 73.402344 C 58.070312 73.363281 57.730469 73.277344 57.605469 73.277344 C 57.519531 73.277344 57.519531 73.109375 57.519531 73.066406 C 57.519531 72.894531 57.054688 72.8125 57.097656 72.429688 C 57.136719 72.132812 57.222656 72.175781 57.179688 71.835938 C 57.265625 71.667969 57.351562 71.457031 57.605469 71.328125 C 58.195312 70.949219 58.28125 70.566406 59.339844 70.4375 C 59.511719 70.4375 60.101562 70.355469 60.1875 70.269531 C 60.316406 70.183594 60.90625 70.144531 61.078125 70.144531 C 61.289062 70.144531 61.882812 70.101562 61.925781 70.015625 C 62.007812 69.929688 63.195312 69.804688 63.363281 69.847656 C 63.574219 69.890625 63.957031 69.890625 64.167969 69.972656 Z M 64.167969 69.972656 " fill-opacity="1" fill-rule="evenodd"/><path fill="#292929" d="M 64.167969 69.972656 C 65.355469 70.015625 65.652344 70.398438 66.625 70.566406 C 66.921875 70.609375 67.429688 71.074219 67.8125 71.160156 C 68.234375 71.285156 68.488281 71.371094 68.574219 71.625 C 68.574219 71.667969 68.574219 71.710938 68.574219 71.710938 C 68.574219 72.21875 67.980469 72.429688 67.851562 72.683594 C 67.683594 73.066406 67.597656 72.894531 67.472656 73.066406 C 67.21875 73.320312 67.007812 73.234375 66.753906 73.320312 C 66.496094 73.402344 66.582031 73.363281 66.414062 73.402344 C 66.074219 73.488281 65.90625 73.488281 65.652344 73.574219 C 65.183594 73.65625 62.855469 73.65625 62.261719 73.65625 C 61.925781 73.65625 61.925781 73.617188 61.753906 73.617188 C 60.90625 73.617188 60.101562 73.742188 59.425781 73.402344 C 59.339844 73.402344 58.960938 73.234375 58.917969 73.234375 C 58.535156 73.148438 58.449219 73.066406 58.195312 72.9375 C 58.113281 72.894531 57.773438 72.8125 57.644531 72.8125 C 57.5625 72.851562 57.519531 72.683594 57.519531 72.640625 C 57.519531 72.472656 57.265625 72.386719 57.179688 72.175781 C 57.179688 72.089844 57.179688 72.046875 57.179688 71.835938 C 57.265625 71.667969 57.351562 71.457031 57.605469 71.328125 C 58.195312 70.949219 58.28125 70.566406 59.339844 70.4375 C 59.511719 70.4375 60.101562 70.355469 60.1875 70.269531 C 60.316406 70.183594 60.90625 70.144531 61.078125 70.144531 C 61.289062 70.144531 61.882812 70.101562 61.925781 70.015625 C 62.007812 69.929688 63.195312 69.804688 63.363281 69.847656 C 63.574219 69.890625 63.957031 69.890625 64.167969 69.972656 Z M 64.167969 69.972656 " fill-opacity="1" fill-rule="evenodd"/><path fill="#000000" d="M 58.789062 66.289062 C 60.355469 66.332031 60.738281 66.671875 62.007812 66.796875 C 62.390625 66.839844 63.066406 67.21875 63.535156 67.304688 C 64.210938 67.433594 64.59375 67.558594 64.59375 67.855469 C 64.59375 67.898438 64.632812 67.984375 64.550781 68.023438 C 64.550781 68.023438 64.507812 68.152344 64.507812 68.152344 C 64.550781 68.617188 63.746094 68.746094 63.574219 69 C 63.320312 69.339844 63.238281 69.167969 63.066406 69.296875 C 62.769531 69.550781 62.472656 69.464844 62.136719 69.550781 C 61.839844 69.59375 61.925781 69.550781 61.667969 69.632812 C 61.289062 69.675781 61.035156 69.675781 60.695312 69.761719 C 60.101562 69.847656 57.011719 69.847656 56.25 69.847656 C 55.867188 69.847656 55.824219 69.804688 55.613281 69.804688 C 54.511719 69.761719 53.496094 69.890625 52.523438 69.632812 C 52.480469 69.59375 51.929688 69.464844 51.886719 69.464844 C 51.421875 69.378906 51.292969 69.296875 50.953125 69.210938 C 50.828125 69.210938 50.363281 69.125 50.234375 69.125 C 50.109375 69.125 50.066406 69 50.109375 68.957031 C 50.109375 68.789062 49.515625 68.703125 49.597656 68.363281 C 49.640625 68.152344 49.726562 68.195312 49.640625 67.898438 C 49.8125 67.730469 49.894531 67.558594 50.234375 67.433594 C 50.996094 67.136719 51.082031 66.839844 52.480469 66.710938 C 52.734375 66.671875 53.496094 66.628906 53.621094 66.542969 C 53.75 66.457031 54.554688 66.457031 54.765625 66.457031 C 55.019531 66.457031 55.78125 66.414062 55.867188 66.332031 C 55.996094 66.246094 57.519531 66.160156 57.730469 66.203125 C 58.027344 66.246094 58.492188 66.246094 58.789062 66.289062 Z M 58.789062 66.289062 " fill-opacity="1" fill-rule="evenodd"/><path fill="#292929" d="M 58.789062 66.289062 C 60.355469 66.332031 60.738281 66.671875 62.007812 66.796875 C 62.390625 66.839844 63.066406 67.21875 63.535156 67.304688 C 64.125 67.433594 64.464844 67.515625 64.550781 67.730469 C 64.550781 67.730469 64.550781 67.769531 64.550781 67.769531 C 64.59375 68.238281 63.746094 68.363281 63.574219 68.617188 C 63.363281 68.957031 63.277344 68.789062 63.109375 68.914062 C 62.769531 69.167969 62.472656 69.085938 62.179688 69.167969 C 61.839844 69.210938 61.964844 69.167969 61.710938 69.253906 C 61.332031 69.296875 61.078125 69.296875 60.738281 69.378906 C 60.144531 69.464844 57.054688 69.464844 56.292969 69.464844 C 55.867188 69.464844 55.867188 69.421875 55.613281 69.421875 C 54.554688 69.378906 53.496094 69.507812 52.5625 69.253906 C 52.523438 69.210938 51.972656 69.085938 51.929688 69.085938 C 51.464844 69 51.335938 68.914062 50.996094 68.828125 C 50.871094 68.828125 50.402344 68.746094 50.277344 68.746094 C 50.148438 68.746094 50.109375 68.617188 50.109375 68.574219 C 50.109375 68.449219 49.769531 68.363281 49.640625 68.195312 C 49.683594 68.109375 49.683594 68.066406 49.640625 67.898438 C 49.8125 67.730469 49.894531 67.558594 50.234375 67.433594 C 50.996094 67.136719 51.082031 66.839844 52.480469 66.710938 C 52.734375 66.671875 53.496094 66.628906 53.621094 66.542969 C 53.75 66.457031 54.554688 66.457031 54.765625 66.457031 C 55.019531 66.457031 55.78125 66.414062 55.867188 66.332031 C 55.996094 66.246094 57.519531 66.160156 57.730469 66.203125 C 58.027344 66.246094 58.492188 66.246094 58.789062 66.289062 Z M 58.789062 66.289062 " fill-opacity="1" fill-rule="evenodd"/><path fill="#000000" d="M 50.785156 64.257812 C 51.886719 64.296875 52.140625 64.511719 53.03125 64.59375 C 53.285156 64.636719 53.75 64.890625 54.089844 64.976562 C 54.554688 65.0625 54.808594 65.101562 54.808594 65.316406 C 54.808594 65.355469 54.851562 65.398438 54.808594 65.441406 C 54.808594 65.441406 54.765625 65.527344 54.765625 65.527344 C 54.765625 65.867188 54.214844 65.949219 54.089844 66.121094 C 53.917969 66.332031 53.878906 66.246094 53.75 66.332031 C 53.539062 66.457031 53.328125 66.414062 53.113281 66.457031 C 52.902344 66.542969 52.945312 66.5 52.777344 66.542969 C 52.523438 66.585938 52.351562 66.585938 52.097656 66.628906 C 51.675781 66.671875 49.558594 66.671875 49.007812 66.671875 C 48.710938 66.671875 48.710938 66.671875 48.539062 66.671875 C 47.777344 66.628906 47.058594 66.710938 46.378906 66.542969 C 46.339844 66.542969 45.957031 66.414062 45.957031 66.414062 C 45.617188 66.375 45.535156 66.332031 45.28125 66.246094 C 45.195312 66.246094 44.898438 66.203125 44.8125 66.203125 C 44.6875 66.203125 44.6875 66.121094 44.6875 66.078125 C 44.6875 65.949219 44.304688 65.90625 44.347656 65.695312 C 44.347656 65.527344 44.433594 65.570312 44.390625 65.355469 C 44.476562 65.273438 44.558594 65.144531 44.769531 65.0625 C 45.320312 64.847656 45.40625 64.636719 46.339844 64.550781 C 46.507812 64.511719 47.058594 64.46875 47.144531 64.425781 C 47.226562 64.382812 47.820312 64.382812 47.949219 64.382812 C 48.117188 64.382812 48.667969 64.339844 48.753906 64.296875 C 48.792969 64.214844 49.894531 64.171875 50.023438 64.171875 C 50.234375 64.214844 50.574219 64.214844 50.785156 64.257812 Z M 50.785156 64.257812 " fill-opacity="1" fill-rule="evenodd"/><path fill="#292929" d="M 50.785156 64.257812 C 51.886719 64.296875 52.140625 64.511719 53.03125 64.59375 C 53.285156 64.636719 53.75 64.890625 54.089844 64.976562 C 54.46875 65.019531 54.722656 65.101562 54.808594 65.230469 C 54.808594 65.273438 54.808594 65.273438 54.808594 65.273438 C 54.808594 65.570312 54.257812 65.695312 54.132812 65.867188 C 53.960938 66.078125 53.917969 65.992188 53.792969 66.078125 C 53.582031 66.203125 53.367188 66.160156 53.113281 66.203125 C 52.902344 66.246094 52.988281 66.246094 52.816406 66.289062 C 52.523438 66.332031 52.351562 66.332031 52.140625 66.375 C 51.71875 66.414062 49.558594 66.414062 49.007812 66.414062 C 48.753906 66.414062 48.710938 66.414062 48.539062 66.414062 C 47.820312 66.375 47.058594 66.457031 46.421875 66.289062 C 46.378906 66.246094 46 66.160156 45.957031 66.160156 C 45.617188 66.121094 45.574219 66.078125 45.320312 65.992188 C 45.238281 65.992188 44.898438 65.90625 44.8125 65.949219 C 44.730469 65.949219 44.6875 65.824219 44.730469 65.824219 C 44.730469 65.738281 44.476562 65.695312 44.390625 65.570312 C 44.390625 65.527344 44.390625 65.484375 44.390625 65.355469 C 44.476562 65.273438 44.558594 65.144531 44.769531 65.0625 C 45.320312 64.847656 45.40625 64.636719 46.339844 64.550781 C 46.507812 64.511719 47.058594 64.46875 47.144531 64.425781 C 47.226562 64.382812 47.820312 64.382812 47.949219 64.382812 C 48.117188 64.382812 48.667969 64.339844 48.753906 64.296875 C 48.792969 64.214844 49.894531 64.171875 50.023438 64.171875 C 50.234375 64.214844 50.574219 64.214844 50.785156 64.257812 Z M 50.785156 64.257812 " fill-opacity="1" fill-rule="evenodd"/><g clip-path="url(#8d412ff983)"><path fill="#000000" d="M 42.570312 61.714844 C 43.671875 61.714844 43.925781 61.96875 44.8125 62.054688 C 45.066406 62.097656 45.535156 62.351562 45.914062 62.390625 C 46.378906 62.476562 46.636719 62.5625 46.636719 62.773438 C 46.636719 62.773438 46.636719 62.859375 46.59375 62.902344 C 46.59375 62.902344 46.59375 62.984375 46.59375 62.984375 C 46.59375 63.28125 46.042969 63.410156 45.914062 63.535156 C 45.746094 63.789062 45.703125 63.664062 45.574219 63.746094 C 45.363281 63.917969 45.152344 63.875 44.898438 63.917969 C 44.6875 63.960938 44.769531 63.960938 44.601562 63.960938 C 44.304688 64.042969 44.136719 64.042969 43.925781 64.042969 C 43.5 64.128906 41.339844 64.128906 40.789062 64.128906 C 40.535156 64.128906 40.492188 64.085938 40.324219 64.085938 C 39.605469 64.085938 38.84375 64.171875 38.207031 63.960938 C 38.164062 63.960938 37.785156 63.875 37.742188 63.875 C 37.402344 63.832031 37.359375 63.746094 37.105469 63.707031 C 37.019531 63.707031 36.683594 63.621094 36.597656 63.621094 C 36.511719 63.621094 36.46875 63.535156 36.46875 63.535156 C 36.511719 63.410156 36.089844 63.367188 36.132812 63.113281 C 36.175781 62.984375 36.214844 62.984375 36.175781 62.816406 C 36.300781 62.6875 36.386719 62.5625 36.597656 62.476562 C 37.148438 62.265625 37.191406 62.054688 38.164062 61.96875 C 38.332031 61.96875 38.84375 61.925781 38.925781 61.882812 C 39.054688 61.84375 39.605469 61.800781 39.773438 61.800781 C 39.941406 61.800781 40.492188 61.800781 40.535156 61.757812 C 40.621094 61.671875 41.679688 61.628906 41.847656 61.628906 C 42.019531 61.671875 42.355469 61.671875 42.570312 61.714844 Z M 42.570312 61.714844 " fill-opacity="1" fill-rule="evenodd"/></g><g clip-path="url(#631caec1da)"><path fill="#292929" d="M 42.570312 61.714844 C 43.671875 61.714844 43.925781 61.96875 44.8125 62.054688 C 45.066406 62.097656 45.535156 62.351562 45.914062 62.390625 C 46.296875 62.476562 46.550781 62.519531 46.59375 62.6875 C 46.59375 62.6875 46.59375 62.730469 46.59375 62.730469 C 46.636719 63.027344 46.042969 63.113281 45.914062 63.28125 C 45.789062 63.535156 45.703125 63.410156 45.574219 63.492188 C 45.363281 63.664062 45.152344 63.621094 44.941406 63.664062 C 44.730469 63.707031 44.8125 63.664062 44.601562 63.707031 C 44.347656 63.746094 44.179688 63.746094 43.925781 63.789062 C 43.5 63.875 41.382812 63.875 40.832031 63.875 C 40.535156 63.875 40.535156 63.832031 40.367188 63.832031 C 39.605469 63.832031 38.882812 63.917969 38.207031 63.707031 C 38.164062 63.707031 37.824219 63.621094 37.785156 63.621094 C 37.445312 63.578125 37.359375 63.492188 37.105469 63.453125 C 37.019531 63.410156 36.722656 63.367188 36.640625 63.367188 C 36.554688 63.367188 36.511719 63.28125 36.511719 63.238281 C 36.511719 63.15625 36.257812 63.113281 36.175781 62.984375 C 36.214844 62.941406 36.214844 62.902344 36.175781 62.816406 C 36.300781 62.6875 36.386719 62.5625 36.597656 62.476562 C 37.148438 62.265625 37.191406 62.054688 38.164062 61.96875 C 38.332031 61.96875 38.84375 61.925781 38.925781 61.882812 C 39.054688 61.84375 39.605469 61.800781 39.773438 61.800781 C 39.941406 61.800781 40.492188 61.800781 40.535156 61.757812 C 40.621094 61.671875 41.679688 61.628906 41.847656 61.628906 C 42.019531 61.671875 42.355469 61.671875 42.570312 61.714844 Z M 42.570312 61.714844 " fill-opacity="1" fill-rule="evenodd"/></g><g fill="#292929" fill-opacity="1"><g transform="translate(124.548091, 114.036182)"><g><path d="M 44.5625 -34.0625 C 48.207031 -30.101562 50.03125 -25.242188 50.03125 -19.484375 C 50.03125 -13.722656 48.207031 -8.84375 44.5625 -4.84375 C 40.925781 -0.851562 36.304688 1.140625 30.703125 1.140625 C 25.546875 1.140625 21.300781 -0.476562 17.96875 -3.71875 L 17.96875 19.703125 L 4.546875 19.703125 L 4.546875 -38.890625 L 17.8125 -38.890625 L 17.8125 -34.484375 L 17.96875 -34.484375 C 21.300781 -38.171875 25.546875 -40.015625 30.703125 -40.015625 C 36.304688 -40.015625 40.925781 -38.03125 44.5625 -34.0625 Z M 33.15625 -12.890625 C 34.90625 -14.609375 35.78125 -16.804688 35.78125 -19.484375 C 35.78125 -22.160156 34.945312 -24.34375 33.28125 -26.03125 C 31.613281 -27.726562 29.414062 -28.578125 26.6875 -28.578125 C 24.050781 -28.578125 21.882812 -27.71875 20.1875 -26 C 18.5 -24.28125 17.65625 -22.109375 17.65625 -19.484375 C 17.65625 -16.804688 18.523438 -14.609375 20.265625 -12.890625 C 22.015625 -11.171875 24.15625 -10.3125 26.6875 -10.3125 C 29.257812 -10.3125 31.414062 -11.171875 33.15625 -12.890625 Z M 33.15625 -12.890625 "/></g></g></g><g fill="#292929" fill-opacity="1"><g transform="translate(169.86076, 114.036182)"><g><path d="M 7.203125 -4.8125 C 3.566406 -8.78125 1.75 -13.644531 1.75 -19.40625 C 1.75 -25.164062 3.566406 -30.039062 7.203125 -34.03125 C 10.835938 -38.019531 15.460938 -40.015625 21.078125 -40.015625 C 26.222656 -40.015625 30.46875 -38.398438 33.8125 -35.171875 L 33.8125 -38.890625 L 47.21875 -38.890625 L 47.21875 0 L 33.953125 0 L 33.953125 -4.390625 L 33.8125 -4.390625 C 30.46875 -0.703125 26.222656 1.140625 21.078125 1.140625 C 15.460938 1.140625 10.835938 -0.84375 7.203125 -4.8125 Z M 18.609375 -26 C 16.867188 -24.28125 16 -22.082031 16 -19.40625 C 16 -16.726562 16.832031 -14.539062 18.5 -12.84375 C 20.164062 -11.15625 22.363281 -10.3125 25.09375 -10.3125 C 27.71875 -10.3125 29.875 -11.171875 31.5625 -12.890625 C 33.257812 -14.609375 34.109375 -16.78125 34.109375 -19.40625 C 34.109375 -22.082031 33.234375 -24.28125 31.484375 -26 C 29.742188 -27.71875 27.613281 -28.578125 25.09375 -28.578125 C 22.507812 -28.578125 20.347656 -27.71875 18.609375 -26 Z M 18.609375 -26 "/></g></g></g><g fill="#292929" fill-opacity="1"><g transform="translate(215.173429, 114.036182)"><g><path d="M 6.828125 -38.890625 L 6.828125 -53.359375 L 20.234375 -53.359375 L 20.234375 -38.890625 L 28.421875 -38.890625 L 28.421875 -28.65625 L 20.234375 -28.65625 L 20.234375 -16.296875 C 20.234375 -12.710938 21.242188 -10.921875 23.265625 -10.921875 C 23.773438 -10.921875 24.304688 -11.019531 24.859375 -11.21875 C 25.410156 -11.414062 25.84375 -11.617188 26.15625 -11.828125 L 26.609375 -12.125 L 29.9375 -1.28125 C 27.0625 0.332031 23.78125 1.140625 20.09375 1.140625 C 17.5625 1.140625 15.382812 0.695312 13.5625 -0.1875 C 11.75 -1.070312 10.375 -2.257812 9.4375 -3.75 C 8.5 -5.238281 7.828125 -6.804688 7.421875 -8.453125 C 7.023438 -10.097656 6.828125 -11.851562 6.828125 -13.71875 L 6.828125 -28.65625 L 1.21875 -28.65625 L 1.21875 -38.890625 Z M 6.828125 -38.890625 "/></g></g></g><g fill="#292929" fill-opacity="1"><g transform="translate(238.662362, 114.036182)"><g><path d="M 4.546875 0 L 4.546875 -65.1875 L 17.96875 -65.1875 L 17.96875 -34.796875 L 18.109375 -34.796875 C 21.597656 -38.273438 25.3125 -40.015625 29.25 -40.015625 C 31.175781 -40.015625 33.085938 -39.757812 34.984375 -39.25 C 36.878906 -38.75 38.695312 -37.96875 40.4375 -36.90625 C 42.175781 -35.851562 43.585938 -34.351562 44.671875 -32.40625 C 45.765625 -30.457031 46.3125 -28.195312 46.3125 -25.625 L 46.3125 0 L 32.890625 0 L 32.890625 -21.984375 C 32.890625 -24.003906 32.242188 -25.769531 30.953125 -27.28125 C 29.671875 -28.800781 27.992188 -29.5625 25.921875 -29.5625 C 23.898438 -29.5625 22.066406 -28.773438 20.421875 -27.203125 C 18.785156 -25.640625 17.96875 -23.898438 17.96875 -21.984375 L 17.96875 0 Z M 4.546875 0 "/></g></g></g><g fill="#292929" fill-opacity="1"><g transform="translate(282.30794, 114.036182)"><g><path d="M 28.421875 0 L 19.328125 0 L -1.515625 -38.890625 L 13.953125 -38.890625 L 23.421875 -17.890625 L 32.75 -38.890625 L 41.984375 -38.890625 L 51.3125 -17.890625 L 60.796875 -38.890625 L 76.25 -38.890625 L 55.40625 0 L 46.3125 0 L 37.375 -20.09375 Z M 28.421875 0 "/></g></g></g><g fill="#292929" fill-opacity="1"><g transform="translate(350.580984, 114.036182)"><g><path d="M 7.203125 -4.8125 C 3.566406 -8.78125 1.75 -13.644531 1.75 -19.40625 C 1.75 -25.164062 3.566406 -30.039062 7.203125 -34.03125 C 10.835938 -38.019531 15.460938 -40.015625 21.078125 -40.015625 C 26.222656 -40.015625 30.46875 -38.398438 33.8125 -35.171875 L 33.8125 -38.890625 L 47.21875 -38.890625 L 47.21875 0 L 33.953125 0 L 33.953125 -4.390625 L 33.8125 -4.390625 C 30.46875 -0.703125 26.222656 1.140625 21.078125 1.140625 C 15.460938 1.140625 10.835938 -0.84375 7.203125 -4.8125 Z M 18.609375 -26 C 16.867188 -24.28125 16 -22.082031 16 -19.40625 C 16 -16.726562 16.832031 -14.539062 18.5 -12.84375 C 20.164062 -11.15625 22.363281 -10.3125 25.09375 -10.3125 C 27.71875 -10.3125 29.875 -11.171875 31.5625 -12.890625 C 33.257812 -14.609375 34.109375 -16.78125 34.109375 -19.40625 C 34.109375 -22.082031 33.234375 -24.28125 31.484375 -26 C 29.742188 -27.71875 27.613281 -28.578125 25.09375 -28.578125 C 22.507812 -28.578125 20.347656 -27.71875 18.609375 -26 Z M 18.609375 -26 "/></g></g></g><g fill="#292929" fill-opacity="1"><g transform="translate(395.893653, 114.036182)"><g><path d="M 34.03125 -38.890625 L 49.5 -38.890625 L 18.953125 19.703125 L 3.484375 19.703125 L 16.90625 -6.0625 L -1.515625 -38.890625 L 13.953125 -38.890625 L 24.78125 -18.953125 Z M 34.03125 -38.890625 "/></g></g></g></svg>