<svg xmlns="http://www.w3.org/2000/svg" xmlns:xlink="http://www.w3.org/1999/xlink" width="600" zoomAndPan="magnify" viewBox="0 0 450 187.499995" height="250" preserveAspectRatio="xMidYMid meet" version="1.0"><defs><g/></defs><path stroke-linecap="round" transform="matrix(0, 0.748005, -0.748005, 0, 117.028396, 51.902858)" fill="none" stroke-linejoin="miter" d="M 8.501091 8.497963 L 93.445764 8.497963 " stroke="#000000" stroke-width="17" stroke-opacity="1" stroke-miterlimit="4"/><path stroke-linecap="round" transform="matrix(-0.748005, 0.00000000130552, -0.00000000130552, -0.748005, 162.966351, 74.954453)" fill="none" stroke-linejoin="miter" d="M 8.498571 8.498332 L 91.067132 8.498332 " stroke="#000000" stroke-width="17" stroke-opacity="1" stroke-miterlimit="4"/><path stroke-linecap="round" transform="matrix(0, -0.748005, 0.748005, 0, 136.74992, 116.509592)" fill="none" stroke-linejoin="miter" d="M 8.498936 8.501885 L 77.881385 8.501885 " stroke="#000000" stroke-width="17" stroke-opacity="1" stroke-miterlimit="4"/><path stroke-linecap="round" transform="matrix(0.748005, 0.000000000000000214, -0.000000000000000214, 0.748005, 88.49307, 94.323172)" fill="none" stroke-linejoin="miter" d="M 8.500599 8.497955 L 91.06916 8.497955 " stroke="#000000" stroke-width="17" stroke-opacity="1" stroke-miterlimit="4"/><g fill="#000000" fill-opacity="1"><g transform="translate(166.089108, 96.440742)"><g><path d="M 30.21875 -23.09375 C 32.6875 -20.40625 33.921875 -17.109375 33.921875 -13.203125 C 33.921875 -9.296875 32.6875 -5.988281 30.21875 -3.28125 C 27.75 -0.582031 24.613281 0.765625 20.8125 0.765625 C 17.320312 0.765625 14.441406 -0.328125 12.171875 -2.515625 L 12.171875 13.359375 L 3.078125 13.359375 L 3.078125 -26.359375 L 12.078125 -26.359375 L 12.078125 -23.375 L 12.171875 -23.375 C 14.441406 -25.882812 17.320312 -27.140625 20.8125 -27.140625 C 24.613281 -27.140625 27.75 -25.789062 30.21875 -23.09375 Z M 22.46875 -8.734375 C 23.65625 -9.898438 24.25 -11.390625 24.25 -13.203125 C 24.25 -15.023438 23.679688 -16.507812 22.546875 -17.65625 C 21.421875 -18.800781 19.9375 -19.375 18.09375 -19.375 C 16.3125 -19.375 14.84375 -18.789062 13.6875 -17.625 C 12.539062 -16.457031 11.96875 -14.984375 11.96875 -13.203125 C 11.96875 -11.390625 12.554688 -9.898438 13.734375 -8.734375 C 14.921875 -7.566406 16.375 -6.984375 18.09375 -6.984375 C 19.832031 -6.984375 21.289062 -7.566406 22.46875 -8.734375 Z M 22.46875 -8.734375 "/></g></g></g><g fill="#000000" fill-opacity="1"><g transform="translate(196.817569, 96.440742)"><g><path d="M 4.875 -3.265625 C 2.414062 -5.953125 1.1875 -9.25 1.1875 -13.15625 C 1.1875 -17.0625 2.414062 -20.367188 4.875 -23.078125 C 7.34375 -25.785156 10.476562 -27.140625 14.28125 -27.140625 C 17.78125 -27.140625 20.660156 -26.039062 22.921875 -23.84375 L 22.921875 -26.359375 L 32.015625 -26.359375 L 32.015625 0 L 23.015625 0 L 23.015625 -2.984375 L 22.921875 -2.984375 C 20.660156 -0.484375 17.78125 0.765625 14.28125 0.765625 C 10.476562 0.765625 7.34375 -0.578125 4.875 -3.265625 Z M 12.609375 -17.625 C 11.429688 -16.457031 10.84375 -14.96875 10.84375 -13.15625 C 10.84375 -11.34375 11.40625 -9.859375 12.53125 -8.703125 C 13.664062 -7.554688 15.160156 -6.984375 17.015625 -6.984375 C 18.796875 -6.984375 20.257812 -7.566406 21.40625 -8.734375 C 22.550781 -9.898438 23.125 -11.375 23.125 -13.15625 C 23.125 -14.96875 22.53125 -16.457031 21.34375 -17.625 C 20.164062 -18.789062 18.722656 -19.375 17.015625 -19.375 C 15.265625 -19.375 13.796875 -18.789062 12.609375 -17.625 Z M 12.609375 -17.625 "/></g></g></g><g fill="#000000" fill-opacity="1"><g transform="translate(227.54603, 96.440742)"><g><path d="M 4.625 -26.359375 L 4.625 -36.171875 L 13.71875 -36.171875 L 13.71875 -26.359375 L 19.265625 -26.359375 L 19.265625 -19.421875 L 13.71875 -19.421875 L 13.71875 -11.046875 C 13.71875 -8.617188 14.40625 -7.40625 15.78125 -7.40625 C 16.125 -7.40625 16.484375 -7.472656 16.859375 -7.609375 C 17.234375 -7.742188 17.523438 -7.878906 17.734375 -8.015625 L 18.03125 -8.21875 L 20.296875 -0.875 C 18.347656 0.21875 16.125 0.765625 13.625 0.765625 C 11.90625 0.765625 10.425781 0.46875 9.1875 -0.125 C 7.957031 -0.726562 7.023438 -1.535156 6.390625 -2.546875 C 5.765625 -3.554688 5.3125 -4.617188 5.03125 -5.734375 C 4.757812 -6.847656 4.625 -8.035156 4.625 -9.296875 L 4.625 -19.421875 L 0.828125 -19.421875 L 0.828125 -26.359375 Z M 4.625 -26.359375 "/></g></g></g><g fill="#000000" fill-opacity="1"><g transform="translate(243.47488, 96.440742)"><g><path d="M 3.078125 0 L 3.078125 -44.203125 L 12.171875 -44.203125 L 12.171875 -23.59375 L 12.28125 -23.59375 C 14.644531 -25.957031 17.164062 -27.140625 19.84375 -27.140625 C 21.144531 -27.140625 22.4375 -26.96875 23.71875 -26.625 C 25 -26.28125 26.226562 -25.75 27.40625 -25.03125 C 28.59375 -24.3125 29.554688 -23.289062 30.296875 -21.96875 C 31.035156 -20.644531 31.40625 -19.113281 31.40625 -17.375 L 31.40625 0 L 22.296875 0 L 22.296875 -14.90625 C 22.296875 -16.269531 21.859375 -17.46875 20.984375 -18.5 C 20.117188 -19.53125 18.984375 -20.046875 17.578125 -20.046875 C 16.203125 -20.046875 14.957031 -19.515625 13.84375 -18.453125 C 12.726562 -17.390625 12.171875 -16.207031 12.171875 -14.90625 L 12.171875 0 Z M 3.078125 0 "/></g></g></g><g fill="#000000" fill-opacity="1"><g transform="translate(273.072815, 96.440742)"><g><path d="M 19.265625 0 L 13.109375 0 L -1.03125 -26.359375 L 9.453125 -26.359375 L 15.875 -12.125 L 22.203125 -26.359375 L 28.46875 -26.359375 L 34.796875 -12.125 L 41.21875 -26.359375 L 51.703125 -26.359375 L 37.5625 0 L 31.40625 0 L 25.328125 -13.625 Z M 19.265625 0 "/></g></g></g><g fill="#000000" fill-opacity="1"><g transform="translate(319.371689, 96.440742)"><g><path d="M 4.875 -3.265625 C 2.414062 -5.953125 1.1875 -9.25 1.1875 -13.15625 C 1.1875 -17.0625 2.414062 -20.367188 4.875 -23.078125 C 7.34375 -25.785156 10.476562 -27.140625 14.28125 -27.140625 C 17.78125 -27.140625 20.660156 -26.039062 22.921875 -23.84375 L 22.921875 -26.359375 L 32.015625 -26.359375 L 32.015625 0 L 23.015625 0 L 23.015625 -2.984375 L 22.921875 -2.984375 C 20.660156 -0.484375 17.78125 0.765625 14.28125 0.765625 C 10.476562 0.765625 7.34375 -0.578125 4.875 -3.265625 Z M 12.609375 -17.625 C 11.429688 -16.457031 10.84375 -14.96875 10.84375 -13.15625 C 10.84375 -11.34375 11.40625 -9.859375 12.53125 -8.703125 C 13.664062 -7.554688 15.160156 -6.984375 17.015625 -6.984375 C 18.796875 -6.984375 20.257812 -7.566406 21.40625 -8.734375 C 22.550781 -9.898438 23.125 -11.375 23.125 -13.15625 C 23.125 -14.96875 22.53125 -16.457031 21.34375 -17.625 C 20.164062 -18.789062 18.722656 -19.375 17.015625 -19.375 C 15.265625 -19.375 13.796875 -18.789062 12.609375 -17.625 Z M 12.609375 -17.625 "/></g></g></g><g fill="#000000" fill-opacity="1"><g transform="translate(350.10015, 96.440742)"><g><path d="M 23.078125 -26.359375 L 33.5625 -26.359375 L 12.84375 13.359375 L 2.359375 13.359375 L 11.453125 -4.109375 L -1.03125 -26.359375 L 9.453125 -26.359375 L 16.8125 -12.84375 Z M 23.078125 -26.359375 "/></g></g></g></svg>